<svg width="19" height="27" xmlns="http://www.w3.org/2000/svg">
 <title>Mobile</title>

 <g>
  <title>background</title>
  <rect fill="none" id="canvas_background" height="29" width="21" y="-1" x="-1"/>
 </g>
 <g>
  <title>Layer 1</title>
  <g fill-rule="evenodd" fill="none" id="Page-1">
   <g id="01_Dashboard">
    <g id="Live-Traffic">
     <g id="Mobile">
      <g fill="#704C9F" id="Group-13">
       <path id="Fill-1" d="m15.5417,22.35415c0,1.4354 -1.16875,2.60415 -2.60415,2.60415l-7.2917,0c-1.4354,0 -2.60415,-1.16875 -2.60415,-2.60415l0,-17.7083c0,-1.4354 1.16875,-2.60415 2.60415,-2.60415l7.29165,0c1.4354,0 2.6042,1.16875 2.6042,2.60415l0,17.7083l0,0zm-2.60415,-21.35415l-7.2917,0c-2.0104,0 -3.64585,1.6354 -3.64585,3.64585l0,17.70835c0,2.0104 1.6354,3.64585 3.64585,3.64585l7.29165,0c2.0104,0 3.64585,-1.6354 3.64585,-3.64585l0,-17.70835c0,-2.01045 -1.6354,-3.64585 -3.6458,-3.64585l0,0z"/>
       <path id="Fill-3" d="m16.06255,5.16665l-13.5417,0c-0.2875,0 -0.52085,0.23335 -0.52085,0.52085c0,0.2875 0.23335,0.52085 0.52085,0.52085l13.54165,0c0.2875,0 0.52085,-0.23335 0.52085,-0.52085c0,-0.2875 -0.2333,-0.52085 -0.5208,-0.52085"/>
       <path id="Fill-5" d="m16.06255,19.75l-13.5417,0c-0.2875,0 -0.52085,0.23335 -0.52085,0.52085c0,0.2875 0.23335,0.52085 0.52085,0.52085l13.54165,0c0.2875,0 0.52085,-0.23335 0.52085,-0.52085c0,-0.2875 -0.2333,-0.52085 -0.5208,-0.52085"/>
       <path id="Fill-7" d="m9.2917,21.83335c0.57529,0 1.04165,0.46636 1.04165,1.04165c0,0.57529 -0.46636,1.04165 -1.04165,1.04165c-0.57529,0 -1.04165,-0.46636 -1.04165,-1.04165c0,-0.57529 0.46636,-1.04165 1.04165,-1.04165"/>
       <path id="Fill-9" d="m10.8542,3.08335l-3.125,0c-0.2875,0 -0.52085,0.23335 -0.52085,0.52085c0,0.2875 0.23335,0.5208 0.52085,0.5208l3.125,0c0.2875,0 0.52085,-0.23335 0.52085,-0.52085c0,-0.2875 -0.23335,-0.5208 -0.52085,-0.5208"/>
       <path id="Fill-11" d="m12.95834,3.08335l-0.0104,0c-0.2875,0 -0.51558,0.23335 -0.51558,0.52085c0,0.2875 0.23848,0.5208 0.52598,0.5208c0.28755,0 0.52085,-0.23335 0.52085,-0.52085c0,-0.2875 -0.2333,-0.5208 -0.52085,-0.5208"/>
      </g>
     </g>
    </g>
   </g>
  </g>
 </g>
</svg>