<svg width="19" height="28" xmlns="http://www.w3.org/2000/svg">
 <title>Mobile</title>

 <g>
  <title>background</title>
  <rect fill="none" id="canvas_background" height="30" width="21" y="-1" x="-1"/>
 </g>
 <g>
  <title>Layer 1</title>
  <g fill-rule="evenodd" fill="none" id="Page-1">
   <g stroke="null" id="01_Dashboard">
    <g stroke="null" id="Live-Traffic">
     <g stroke="null" id="Mobile">
      <g stroke="null" fill-rule="nonzero" fill="#6D7278" id="tablet">
       <path stroke="null" id="Shape" d="m16.54545,0l-14.42425,0c-1.17091,0.00148 -2.11983,1.02044 -2.12121,2.27777l0,22.77778c0.00137,1.25733 0.9503,2.2763 2.12121,2.27777l14.42425,0c1.17091,-0.00148 2.11983,-1.02044 2.12121,-2.27777l0,-22.77778c-0.00137,-1.25733 -0.9503,-2.2763 -2.12121,-2.27777zm1.27273,25.05556c0,0.75479 -0.56982,1.36667 -1.27273,1.36667l-14.42425,0c-0.70291,0 -1.27273,-0.61187 -1.27273,-1.36667l0,-22.77778c0,-0.75479 0.56982,-1.36667 1.27273,-1.36667l14.42425,0c0.70291,0 1.27273,0.61187 1.27273,1.36667l0,22.77778z"/>
       <path stroke="null" id="Shape" d="m1.27273,3.64444l0,19.13333l16.12121,0l0,-19.13333l-16.12121,0zm15.27273,18.22222l-14.42425,0l0,-17.31111l14.42425,0l0,17.31111z"/>
       <path stroke="null" id="Shape" d="m9.33334,23.23333c-0.70292,0 -1.27273,0.61187 -1.27273,1.36667c0,0.75479 0.56981,1.36667 1.27273,1.36667c0.70291,0 1.27273,-0.61187 1.27273,-1.36667c0,-0.75479 -0.56982,-1.36667 -1.27273,-1.36667zm0,1.82223c-0.23429,0 -0.42425,-0.20398 -0.42425,-0.45556c0,-0.25158 0.18995,-0.45556 0.42425,-0.45556c0.23428,0 0.42424,0.20398 0.42424,0.45556c0,0.25158 -0.18995,0.45556 -0.42424,0.45556z"/>
       <circle stroke="null" r="1" cy="2.27778" cx="9.33333" id="Oval"/>
      </g>
     </g>
    </g>
   </g>
  </g>
 </g>
</svg>