<?xml version="1.0" encoding="utf-8"?>
<!-- Generator: Adobe Illustrator 24.1.0, SVG Export Plug-In . SVG Version: 6.00 Build 0)  -->
<svg version="1.1" id="Layer_1" xmlns="http://www.w3.org/2000/svg" xmlns:xlink="http://www.w3.org/1999/xlink" x="0px" y="0px"
	 viewBox="0 0 406.4 160" style="enable-background:new 0 0 406.4 160;" xml:space="preserve">
<style type="text/css">
	.st0{fill:#0071CE;}
	.st1{clip-path:url(#SVGID_2_);}
	.st2{fill:#4AC1E0;}
	.st3{fill:#83D3ED;}
	.st4{fill:#005994;}
</style>
<g>
	<path class="st0" d="M184,99.3h-8.2l-6.3-12.2c-2.9-5.7-4.8-9.6-5.5-11.7c0.2,2,0.3,6,0.3,11.9v12.1h-9.6V56.7h8.9l5.4,9.7
		c2.7,4.9,4.6,8.9,5.7,11.9c-0.2-2.3-0.4-6.4-0.4-12.1v-9.6h9.6V99.3z"/>
	<path class="st0" d="M213.6,83.2c0,5.4-1.1,9.6-3.2,12.5c-2.2,2.9-5.2,4.3-9.3,4.3c-3.9,0-6.9-1.4-9.1-4.2
		c-2.2-2.8-3.2-6.9-3.2-12.3c0-11.2,4.1-16.8,12.4-16.8c4,0,7,1.4,9.2,4.2C212.6,73.7,213.6,77.8,213.6,83.2z M204.3,83.3
		c0-3.3-0.2-5.7-0.7-7c-0.4-1.2-1.2-1.8-2.4-1.8c-1.1,0-1.9,0.6-2.3,1.9c-0.5,1.3-0.7,3.5-0.7,6.8c0,3.3,0.2,5.6,0.7,6.9
		c0.5,1.3,1.3,2,2.4,2c1.1,0,1.9-0.7,2.3-2C204.1,88.8,204.3,86.5,204.3,83.3z"/>
	<path class="st0" d="M242.6,67.3l-8.7,32h-9.4l-8.6-32h9.8l1.6,8.2c1,4.9,1.6,9.6,1.9,14.1c0.3-4.1,0.9-8.9,1.9-14.1l1.6-8.2H242.6
		z"/>
	<path class="st0" d="M268.5,99.3h-9.2v-1.8c-1.9,1.7-3.9,2.5-6.2,2.5c-5.5,0-8.3-3.6-8.3-10.8c0-7,3.1-10.5,9.4-10.5
		c1.9,0,3.6,0.3,5.1,1v-2.5c0-2.1-1.1-3.2-3.2-3.2c-2.3,0-4.7,0.8-7.2,2.4l-2.7-6.5c3.6-2.2,7.4-3.3,11.5-3.3
		c7.3,0,10.9,3.4,10.9,10.2V99.3z M259.3,92v-6.3c-0.9-0.4-1.9-0.7-3.2-0.7c-1.7,0-2.5,1.4-2.5,4.1c0,2.6,0.9,4,2.6,4
		C257.5,93,258.5,92.7,259.3,92z"/>
	<path d="M297.3,83.2c0,11.2-3,16.8-8.9,16.8c-2,0-3.9-0.8-5.7-2.4v1.8h-9.4V58.6l9.4-3.7v14.3c1.9-1.7,3.9-2.6,6-2.6
		C294.4,66.6,297.3,72.1,297.3,83.2z M287.9,83.4c0-3.6-0.2-6.1-0.7-7.3c-0.3-1-1-1.5-2-1.5c-0.9,0-1.8,0.4-2.7,1.1v15.2
		c0.9,0.8,1.8,1.2,2.7,1.2c0.9,0,1.6-0.5,1.9-1.5C287.7,89.3,287.9,86.9,287.9,83.4z"/>
	<path d="M324.3,99.3h-9.2v-1.8c-1.9,1.7-3.9,2.5-6.2,2.5c-5.5,0-8.3-3.6-8.3-10.8c0-7,3.1-10.5,9.4-10.5c1.9,0,3.6,0.3,5.1,1v-2.5
		c0-2.1-1.1-3.2-3.2-3.2c-2.3,0-4.7,0.8-7.2,2.4l-2.7-6.5c3.6-2.2,7.4-3.3,11.5-3.3c7.3,0,10.9,3.4,10.9,10.2V99.3z M315.1,92v-6.3
		c-0.9-0.4-1.9-0.7-3.2-0.7c-1.7,0-2.5,1.4-2.5,4.1c0,2.6,0.9,4,2.6,4C313.2,93,314.2,92.7,315.1,92z"/>
	<path d="M353,99.3h-9.4v-21c0-2.4-0.8-3.6-2.3-3.6c-1,0-2,0.4-2.9,1.2v23.4H329v-32h9.4v1.8c1.9-1.7,4.1-2.5,6.5-2.5
		c5.4,0,8.1,3.3,8.1,10V99.3z"/>
	<path d="M382.7,99.3h-9.8l-3.8-13.6l-1.9,3.2v10.5h-9.4V58.6l9.4-3.7v14.6c0,2.6-0.1,5.4-0.2,8.3c1.4-2.9,2.8-5.6,4.2-8.2l1.3-2.4
		h10l-6.6,9.9L382.7,99.3z"/>
</g>
<g>
	<defs>
		<rect id="SVGID_1_" x="590.5" y="-51.8" width="1024" height="1024"/>
	</defs>
	<clipPath id="SVGID_2_">
		<use xlink:href="#SVGID_1_"  style="overflow:visible;"/>
	</clipPath>
	<g class="st1">
		<defs>
			<rect id="SVGID_3_" x="682.5" y="91.2" width="217" height="217"/>
		</defs>
		<clipPath id="SVGID_4_">
			<use xlink:href="#SVGID_3_"  style="overflow:visible;"/>
		</clipPath>
		<g style="clip-path:url(#SVGID_4_);">
			
				<image style="overflow:visible;" width="600" height="600" xlink:href="A7853ACD46650F08.jpg"  transform="matrix(0.3617 0 0 0.3617 682.4841 91.2134)">
			</image>
		</g>
	</g>
</g>
<path class="st2" d="M118.6,49.3L72,22.9c-0.7-0.4-1.6-0.4-2.4,0L23,49.3c-0.8,0.4-1.2,1.2-1.2,2.1v56.8c0,0.9,0.5,1.7,1.2,2.1
	l46.6,26.5c0.4,0.2,0.8,0.3,1.2,0.3c0.4,0,0.8-0.1,1.2-0.3l46.6-26.5c0.8-0.4,1.2-1.2,1.2-2.1V51.4
	C119.8,50.6,119.4,49.8,118.6,49.3z M114.1,107.4l-43.3,24.6l-43.3-24.6c0,0-0.6-0.2-0.8-0.6c-0.2-0.4-0.1-1.1-0.1-1.1V52.9
	l43.2-24.5c0,0,0.4-0.2,1-0.2s1,0.2,1,0.2L115,52.9v52.8c0,0-0.1,0.6-0.3,1.1C114.5,107.2,114.1,107.4,114.1,107.4z"/>
<path class="st3" d="M47.5,65.6l23.3-13.2v28.4L47.5,94V65.6z"/>
<path class="st0" d="M70.8,107.3L94.1,94L70.8,80.8L47.5,94L70.8,107.3z"/>
<path class="st2" d="M94.1,65.6L70.8,52.4v28.4L94.1,94L94.1,65.6z"/>
<path class="st0" d="M26.6,52.9l20.9,12.8l23.3-13.2l23.3,13.2L115,52.9L71.8,28.3c0,0-1-0.5-2,0C68.9,28.8,26.6,52.9,26.6,52.9z"/>
<path class="st4" d="M47.5,94l0-28.4L26.6,52.9v52.8c0,0-0.1,0.7,0.1,1.1c0.2,0.5,0.8,0.6,0.8,0.6l43.3,24.6l0-24.7L47.5,94z"/>
<path class="st3" d="M94.1,94l0-28.4L115,52.9v52.8c0,0,0.1,0.7-0.1,1.1c-0.2,0.5-0.8,0.6-0.8,0.6l-43.3,24.6l0-24.7L94.1,94z"/>
<g>
	<path class="st2" d="M708.7-94l-35.3,20.4l5,2.9l29.1-16.8v45.1L618-94c-0.8-0.4-1.7-0.4-2.5,0l0,0c-0.8,0.4-1.2,1.3-1.2,2.2v53.8
		c0,0.9,0.5,1.7,1.2,2.2l0,0c0.8,0.4,1.7,0.4,2.5,0l35.3-20.4l-5-2.9l-29,16.8v-45.1l89.4,51.6c0.8,0.4,1.7,0.4,2.5,0v0
		c0.8-0.4,1.2-1.3,1.2-2.2v-53.8c0-0.9-0.5-1.7-1.2-2.2l0,0C710.4-94.5,709.4-94.5,708.7-94z"/>
	<path class="st0" d="M694.9-32.3l-29.1,16.8v-33.5l-5-2.9v36.4l-29-16.8l-5,2.9l34,19.7c1.5,0.9,3.5,0.9,5,0l34.1-19.7L694.9-32.3z
		"/>
	<path class="st0" d="M660.8-120.2l-34.1,19.7l5,2.9l29.1-16.8v33.6l5,2.9v-36.4l29,16.8l5-2.9l-34-19.7
		C664.3-121.1,662.4-121.1,660.8-120.2z"/>
</g>
</svg>
