<svg height="38" viewBox="0 0 120 38" width="120" xmlns="http://www.w3.org/2000/svg" xmlns:xlink="http://www.w3.org/1999/xlink"><linearGradient id="a" x1="61.033941%" x2="26.502657%" y1="4.948125%" y2="71.907422%"><stop offset="0" stop-color="#00a0ff"/><stop offset=".01" stop-color="#00a1ff"/><stop offset=".26" stop-color="#00beff"/><stop offset=".51" stop-color="#00d2ff"/><stop offset=".76" stop-color="#00dfff"/><stop offset="1" stop-color="#00e3ff"/></linearGradient><linearGradient id="b" x1="107.684729%" x2="-130.640394%" y1="50%" y2="50%"><stop offset="0" stop-color="#ffe000"/><stop offset=".41" stop-color="#ffbd00"/><stop offset=".78" stop-color="#ffa500"/><stop offset="1" stop-color="#ff9c00"/></linearGradient><linearGradient id="c" x1="86.219293%" x2="-50.14979%" y1="30.911284%" y2="135.987548%"><stop offset="0" stop-color="#ff3a44"/><stop offset="1" stop-color="#c31162"/></linearGradient><linearGradient id="d" x1="-18.753745%" x2="42.121031%" y1="-11.831554%" y2="35.094813%"><stop offset="0" stop-color="#32a071"/><stop offset=".07" stop-color="#2da771"/><stop offset=".48" stop-color="#15cf74"/><stop offset=".8" stop-color="#06e775"/><stop offset="1" stop-color="#00f076"/></linearGradient><g fill="none" transform="translate(0 1)"><rect fill="#000" height="35" rx="5" width="120"/><path d="m115.555556.71111111c2.061863 0 3.733333 1.67147027 3.733333 3.73333333v26.66666666c0 2.0618631-1.67147 3.7333333-3.733333 3.7333333h-111.11111156c-2.06186306 0-3.73333333-1.6714702-3.73333333-3.7333333v-26.66666666c0-2.06186306 1.67147027-3.73333333 3.73333333-3.73333333zm0-.71111111h-111.11111156c-2.45459888 0-4.44444444 1.98984556-4.44444444 4.44444444v26.66666666c0 2.4545989 1.98984556 4.4444445 4.44444444 4.4444445h111.11111156c2.454598 0 4.444444-1.9898456 4.444444-4.4444445v-26.66666666c0-2.45459888-1.989846-4.44444444-4.444444-4.44444444z" fill="#a6a6a6"/><path d="m60.5688889 19.3333333c-2.0840667.0098075-3.7665121 1.7054944-3.7600004 3.7895739.0065496 2.0840795 1.699589 3.769189 3.7836762 3.76594 2.0840872-.0032585 3.7718567-1.6936463 3.7718797-3.7777361.0146427-1.0094455-.3811274-1.9815913-1.0966621-2.6937745-.7155346-.7121832-1.6895278-1.1033849-2.6988934-1.0840033zm0 6.0711111c-.9393535.0656936-1.8234018-.4494991-2.2293144-1.299167s-.2511871-1.8611149.3901729-2.5505769c.6413601-.6894621 1.6389974-.9168051 2.5157529-.5732933.8767555.3435117 1.4544276 1.1880589 1.4567219 2.1297039.0289269.5890417-.1813042 1.1647936-.5829863 1.5966018-.4016821.4318083-.960754.6830572-1.550347.6967315zm-8.2755556-6.0711111c-2.0852449.0049065-3.7721533 1.6984417-3.768889 3.7836898.0032738 2.0852481 1.6954839 3.7734858 3.7807339 3.7718554 2.0852501-.0016329 3.774816-1.6925167 3.7748218-3.7777674.0146427-1.0094455-.3811275-1.9815913-1.0966621-2.6937745s-1.6895278-1.1033849-2.6988935-1.0840033zm0 6.0711111c-.9398438.0693983-1.8264697-.4432255-2.2352429-1.2923585-.4087732-.8491331-.2564702-1.8618979.3839659-2.5532473.6404361-.6913495 1.6386171-.9205296 2.5164804-.5777785.8778634.3427512 1.4566824 1.187652 1.4592411 2.130051.0289269.5890417-.1813043 1.1647936-.5829864 1.5966018-.4016821.4318083-.960754.6830572-1.550347.6967315zm-9.8577777-4.9066666v1.6h3.84c-.0602103.7536034-.3734715 1.4647062-.8888889 2.0177778-.7768686.7913107-1.8519616 1.2174737-2.96 1.1733333-2.356415 0-4.2666667-1.9102517-4.2666667-4.2666667 0-2.3564149 1.9102517-4.2666666 4.2666667-4.2666666 1.0824851-.0176544 2.1277884.3947129 2.9066666 1.1466666l1.1288889-1.1288889c-1.0622937-1.0756816-2.5149169-1.6753296-4.0266666-1.6622222-2.1520349-.083752-4.177428 1.0165971-5.278352 2.8676063-1.100924 1.8510091-1.100924 4.1560005 0 6.0070097 1.100924 1.8510091 3.1263171 2.9513582 5.278352 2.8676062 1.5393466.0695594 3.0335473-.5300655 4.0977777-1.6444444.9312674-1.0231808 1.4284828-2.3682123 1.3866667-3.7511111.0028683-.3368994-.0269003-.6732846-.0888889-1.0044445zm40.2755555 1.2444444c-.4745959-1.3962577-1.761842-2.3546195-3.2355555-2.4088957-.982788-.0019147-1.9225378.4030358-2.5961072 1.1187033-.6735695.7156676-1.0208746 1.678213-.9594484 2.6590813-.0218303 1.0038188.3654795 1.9733585 1.0729353 2.6858436s1.6742276 1.1066531 2.6781758 1.0919342c1.2629853.006808 2.4450163-.6209373 3.1466667-1.6711111l-1.2888889-.8888889c-.3913369.652393-1.0970167 1.0508151-1.8577778 1.0488889-.7879187.0300312-1.5140966-.4247113-1.8311111-1.1466667l5.0577778-2.0888889zm-5.1555555 1.2622222c-.0363983-.5554095.1522895-1.1020933.5235259-1.5168078.3712364-.4147146.893772-.6625507 1.4498074-.6876366.5861065-.0386208 1.1387257.2761623 1.4044444.8zm-4.1066667 3.6622223h1.6622222v-11.1111111h-1.6622222zm-2.72-6.4888889h-.0622222c-.5067004-.5665095-1.2310603-.8898845-1.9911111-.8888912-2.0176473.0978438-3.603256 1.7622064-3.603256 3.7822245s1.5856087 3.6843808 3.603256 3.7822222c.7625146.0128211 1.4915697-.3126499 1.9911111-.8888889h.0533333v.5422223c0 1.4488889-.7733333 2.2222222-2.0177778 2.2222222-.8477306-.0198423-1.5993528-.5501925-1.9022222-1.3422222l-1.4488889.6044444c.5579392 1.3571653 1.8837608 2.2398741 3.3511111 2.2311758 1.9466667 0 3.5555556-1.1467313 3.5555556-3.9378425v-6.7288888h-1.5288889zm-1.9022222 5.2266666c-1.1885444-.1047468-2.10011-1.1001822-2.10011-2.2933333s.9115656-2.1885865 2.10011-2.2933333c.5743285.0294733 1.1124319.2895734 1.4923109.7213302.379879.4317567.5693539.9985959.5254668 1.5720031.0490088.5760439-.13986 1.1470499-.522693 1.5802557-.3828331.4332059-.9262755.6908677-1.5039736.7130776zm21.6711111-9.8488888h-3.9733334v11.1111111h1.6622223v-4.2133334h2.32c1.2912746.0927679 2.5261991-.5435476 3.2001156-1.6489129.6739166-1.1053653.6739166-2.4945866 0-3.5999519-.6739165-1.1053654-1.908841-1.7416808-3.2001156-1.6489129zm0 5.3333333h-2.32v-3.7866667h2.3555555c1.053023 0 1.9066667.8536438 1.9066667 1.9066667s-.8536437 1.9066667-1.9066667 1.9066667zm10.2488892-1.6c-1.2367001-.0739209-2.3993898.5929671-2.9600003 1.6977778l1.4755555.6133333c.2972496-.5478505.8898888-.8685728 1.5111108-.8177778.426247-.0497825.854626.0737512 1.188914.3428535.334289.2691023.546463.6612131.588864 1.0882576v.1155556c-.533873-.2826675-1.129251-.4292221-1.733333-.4266667-1.5911113 0-3.2000002.8888889-3.2000002 2.4977778.0317223.6930745.3424358 1.3438485.8614501 1.8042643.5190142.4604159 1.2021927.6913203 1.8941051.6401801.852648.0612295 1.670728-.3478105 2.133334-1.0666666h.053333v.8888889h1.6v-4.2755556c0-1.9466667-1.475556-3.0755555-3.368889-3.0755555zm-.204445 6.0888889c-.542222 0-1.2977776-.2755556-1.2977776-.9422222 0-.8888889.9422226-1.1822223 1.7777776-1.1822223.528038-.0130294 1.049894.1158999 1.511111.3733334-.114937.9950356-.945312 1.7533693-1.946666 1.7777777zm9.448889-5.8222222-1.902222 4.8177777h-.053333l-1.973334-4.8177777h-1.777778l2.96 6.7377777-1.688888 3.7422223h1.733333l4.551111-10.48zm-14.9422221 7.1111111h1.6622222v-11.1111111h-1.6622222z" fill="#fff"/><path d="m39.1825 12c.82 0 1.47875-.24625 1.97625-.73875s.74625-1.14125.74625-1.94625c0-.8-.24875-1.4475-.74625-1.9425s-1.15625-.7425-1.97625-.7425h-1.6425v5.37zm0-.66h-.9525v-4.05h.9525c.625 0 1.1175.18 1.4775.54s.54.855.54 1.485c0 .635-.18 1.13125-.54 1.48875s-.8525.53625-1.4775.53625zm4.23.66v-5.37h-.69v5.37zm2.6025.12c.5 0 .925-.14 1.275-.42.345-.285.5175-.6625.5175-1.1325 0-.39-.11625-.71875-.34875-.98625s-.62125-.49375-1.16625-.67875c-.535-.185-.8825-.345-1.0425-.48-.145-.135-.2175-.295-.2175-.48 0-.225.0925-.4075.2775-.5475.185-.15.4125-.225.6825-.225.255 0 .47125.06625.64875.19875s.29625.29875.35625.49875l.645-.27c-.1-.31-.3-.5675-.6-.7725-.3-.21-.655-.315-1.065-.315-.465 0-.8575.14-1.1775.42-.315.28-.4725.6175-.4725 1.0125 0 .565.285.9925.855 1.2825.105.055.3725.16.8025.315.425.145.715.295.87.45.165.16.2475.3525.2475.5775 0 .27-.1.48625-.3.64875s-.4575.24375-.7725.24375c-.145 0-.2825-.02625-.4125-.07875s-.24875-.125-.35625-.2175-.20125-.20375-.28125-.33375-.1425-.275-.1875-.435l-.66.27c.13.45.365.805.705 1.065s.7325.39 1.1775.39zm3.315-.12v-2.175h1.14c.47 0 .865-.1525 1.185-.4575.33-.305.495-.685.495-1.14 0-.445-.165-.8225-.495-1.1325-.325-.31-.72-.465-1.185-.465h-1.83v5.37zm1.155-2.835h-1.155v-1.875h1.155c.275 0 .5025.095.6825.285.185.185.2775.4025.2775.6525 0 .255-.0925.475-.2775.66-.18.185-.4075.2775-.6825.2775zm4.8825 2.955c.775 0 1.43-.27 1.965-.81.53-.535.795-1.2.795-1.995 0-.79-.265-1.4525-.795-1.9875-.53-.545-1.185-.8175-1.965-.8175s-1.435.27-1.965.81c-.53.535-.795 1.2-.795 1.995s.265 1.46.795 1.995c.53.54 1.185.81 1.965.81zm0-.66c-.585 0-1.075-.2025-1.47-.6075-.39-.405-.585-.9175-.585-1.5375s.195-1.1325.585-1.5375c.395-.405.885-.6075 1.47-.6075s1.0725.2025 1.4625.6075c.395.4.5925.9125.5925 1.5375s-.1975 1.1375-.5925 1.5375c-.39.405-.8775.6075-1.4625.6075zm4.2675.54v-3.345l-.03-1.035h.03l2.73 4.38h.72v-5.37h-.69v3.1425l.03 1.035h-.03l-2.61-4.1775h-.84v5.37zm5.22 0v-5.37h-.69v5.37zm3.1275 0c.455 0 .8375-.145 1.1475-.435.32-.29.48-.655.48-1.095 0-.285-.0825-.53875-.2475-.76125s-.385-.37875-.66-.46875v-.03c.485-.215.7275-.5875.7275-1.1175 0-.42-.1525-.7675-.4575-1.0425-.305-.28-.67-.42-1.095-.42h-1.9425v5.37zm-.105-3.0675h-1.2525v-1.6425h1.2825c.235 0 .4325.0825.5925.2475.16.17.24.36.24.57 0 .215-.0825.4075-.2475.5775-.165.165-.37.2475-.615.2475zm.135 2.4075h-1.3875v-1.7625h1.3575c.265 0 .485.0875.66.2625s.2625.38.2625.615c0 .24-.085.4475-.255.6225-.175.175-.3875.2625-.6375.2625zm5.3925.66v-.66h-2.325v-4.71h-.69v5.37zm3.855 0v-.66h-2.445v-1.7025h2.205v-.645h-2.205v-1.7025h2.445v-.66h-3.135v5.37zm5.715 0v-.66h-2.445v-1.7025h2.205v-.645h-2.205v-1.7025h2.445v-.66h-3.135v5.37zm1.62 0v-3.345l-.03-1.035h.03l2.73 4.38h.72v-5.37h-.69v3.1425l.03 1.035h-.03l-2.61-4.1775h-.84v5.37z" fill="#fff"/><g transform="translate(8 6.222222)"><path d="m1.28.48c-.28972004.34765185-.43595231.7927066-.40888889 1.24444444v19.66222226c-.02706342.4517378.11916885.8967926.40888889 1.2444444l.06222222.0622222 11.01333338-11.0044444v-.2577778l-11.01333338-11.01333332z" fill="url(#a)"/><path d="m16 15.36-3.6444444-3.6711111v-.2577778l3.6444444-3.67999999.08.04444445 4.3644444 2.48000004c1.2444445.7022222 1.2444445 1.8577777 0 2.5688888l-4.3466666 2.4711112z" fill="url(#b)"/><path d="m16.1066667 15.3066667-3.7511111-3.7511111-11.0755556 11.0755555c.52330465.4600199 1.29993686.4824228 1.84888889.0533333l12.98666671-7.3777777" fill="url(#c)"/><path d="m16.1066667 7.80444444-12.9866667-7.37777777c-.54895203-.42908943-1.32558424-.40668658-1.84888889.05333333l11.08444449 11.0755556z" fill="url(#d)"/><path d="m16 15.2266667-12.88 7.3333333c-.52707686.3940768-1.25070092.3940768-1.77777778 0l-.06222222.0622222.06222222.0622222c.52608515.3970483 1.25169264.3970483 1.77777778 0l12.9866667-7.3777777z" fill="#000" opacity=".2"/><path d="m1.28 22.5066667c-.28972004-.3476519-.43595231-.7927066-.40888889-1.2444445v.1333334c-.02706342.4517378.11916885.8967925.40888889 1.2444444l.06222222-.0622222zm19.1644444-9.7955556-4.4444444 2.5155556.08.08 4.3644444-2.4711111c.5040624-.2367883.8430831-.7249781.8888889-1.28-.1013071.5020781-.4295947.928852-.8888889 1.1555555z" fill="#000" opacity=".12"/><path d="m3.12.55111111 17.3244444 9.84888889c.4592942.2267035.7875818.6534774.8888889 1.1555556-.0458058-.555022-.3848265-1.0432118-.8888889-1.28l-17.3244444-9.84888893c-1.24444444-.70222223-2.25777778-.11555556-2.25777778 1.30666666v.13333334c.02666667-1.43111111 1.02222222-2.01777778 2.25777778-1.31555556z" fill="#fff" opacity=".25"/></g></g></svg>