<svg id="Layer_1" data-name="Layer 1" xmlns="http://www.w3.org/2000/svg" viewBox="0 0 150 150"><defs><style>.cls-1{fill:#4ac1e0;}.cls-2{fill:#83d3ed;}.cls-3{fill:#0071ce;}.cls-4{fill:#005994;}</style></defs><path class="cls-1" d="M122.82,42.27,76.2,15.8a2.42,2.42,0,0,0-2.39,0L27.18,42.27A2.4,2.4,0,0,0,26,44.36v56.8a2.38,2.38,0,0,0,1.22,2.09l46.63,26.47a2.37,2.37,0,0,0,2.38,0l46.63-26.47a2.4,2.4,0,0,0,1.22-2.09V44.36A2.38,2.38,0,0,0,122.82,42.27Zm-4.52,58L75,124.85,31.7,100.28a1.5,1.5,0,0,1-.78-.65,2.28,2.28,0,0,1-.14-1.09V45.77L74,21.24a2.16,2.16,0,0,1,2,0l43.23,24.53V98.54a3.52,3.52,0,0,1-.28,1.08A1.49,1.49,0,0,1,118.3,100.28Z"/><path class="cls-2" d="M51.69,58.57,75,45.34V73.73L51.69,87Z"/><path class="cls-3" d="M75,100.19,98.31,87,75,73.73,51.69,87Z"/><path class="cls-1" d="M98.31,58.57,75,45.34V73.73L98.31,87Z"/><path class="cls-3" d="M30.78,45.77l20.91,12.8L75,45.34,98.31,58.57l20.91-12.8L76,21.24a2.28,2.28,0,0,0-2,0Z"/><path class="cls-4" d="M51.69,87V58.57L30.78,45.77V98.54a2.38,2.38,0,0,0,.14,1.09,1.51,1.51,0,0,0,.78.65L75,124.85V100.19Z"/><path class="cls-2" d="M98.31,87V58.57l20.91-12.8V98.54a2.38,2.38,0,0,1-.14,1.09,1.51,1.51,0,0,1-.78.65L75,124.85V100.19Z"/></svg>