
<svg width="15px" height="15px" viewBox="0 0 15 15" version="1.1" xmlns="http://www.w3.org/2000/svg" xmlns:xlink="http://www.w3.org/1999/xlink">
    <title>info</title>
    <defs>
        <rect id="path-1" x="0" y="0" width="368" height="312" rx="8"></rect>
        <filter x="-4.1%" y="-4.8%" width="108.2%" height="109.6%" filterUnits="objectBoundingBox" id="filter-2">
            <feMorphology radius="5" operator="erode" in="SourceAlpha" result="shadowSpreadOuter1"></feMorphology>
            <feOffset dx="0" dy="0" in="shadowSpreadOuter1" result="shadowOffsetOuter1"></feOffset>
            <feGaussianBlur stdDeviation="10" in="shadowOffsetOuter1" result="shadowBlurOuter1"></feGaussianBlur>
            <feComposite in="shadowBlurOuter1" in2="SourceAlpha" operator="out" result="shadowBlurOuter1"></feComposite>
            <feColorMatrix values="0 0 0 0 0   0 0 0 0 0   0 0 0 0 0  0 0 0 0.3 0" type="matrix" in="shadowBlurOuter1"></feColorMatrix>
        </filter>
    </defs>
    <g id="Page-1" stroke="none" stroke-width="1" fill="none" fill-rule="evenodd">
        <g id="Dashboard-V3" transform="translate(-1129.000000, -178.000000)">
            <g id="Live-Traffic" transform="translate(912.000000, 144.000000)">
                <g id="Card">
                    <use fill="black" fill-opacity="1" filter="url(#filter-2)" xlink:href="#path-1"></use>
                    <rect stroke="#EAF0F7" stroke-width="1" stroke-linejoin="square" fill="#FFFFFF" fill-rule="evenodd" x="0.5" y="0.5" width="367" height="311" rx="8"></rect>
                </g>
                <g id="info" opacity="0.5" transform="translate(217.000000, 34.000000)" fill="#000000" fill-rule="nonzero">
                    <path d="M8.12496185,3.75 C8.12496185,4.09515381 7.84515381,4.37496185 7.5,4.37496185 C7.15484619,4.37496185 6.87503815,4.09515381 6.87503815,3.75 C6.87503815,3.40484619 7.15484619,3.12503815 7.5,3.12503815 C7.84515381,3.12503815 8.12496185,3.40484619 8.12496185,3.75 Z" id="Path"></path>
                    <path d="M7.5,11.8749618 C7.24124909,11.8749618 7.03125,11.6649628 7.03125,11.4062118 L7.03125,6.5625 L6.40628815,6.5625 C6.14753725,6.5625 5.93753815,6.35250091 5.93753815,6.09375 C5.93753815,5.83499909 6.14753725,5.625 6.40628815,5.625 L7.5,5.625 C7.75875091,5.625 7.96875,5.83499909 7.96875,6.09375 L7.96875,11.4062118 C7.96875,11.6649628 7.75875091,11.8749618 7.5,11.8749618 Z" id="Path"></path>
                    <path d="M7.5,15 C3.36433412,15 0,11.6356659 0,7.5 C0,3.36433412 3.36433412,0 7.5,0 C11.6356659,0 15,3.36433412 15,7.5 C15,11.6356659 11.6356659,15 7.5,15 Z M7.5,0.9375 C3.88126374,0.9375 0.9375,3.88126374 0.9375,7.5 C0.9375,11.1187363 3.88126374,14.0625 7.5,14.0625 C11.1187363,14.0625 14.0625,11.1187363 14.0625,7.5 C14.0625,3.88126374 11.1187363,0.9375 7.5,0.9375 Z" id="Shape"></path>
                    <path d="M8.90625,11.8749618 L6.09375,11.8749618 C5.83499909,11.8749618 5.625,11.6649628 5.625,11.4062118 C5.625,11.1474609 5.83499909,10.9374618 6.09375,10.9374618 L8.90625,10.9374618 C9.16500091,10.9374618 9.375,11.1474609 9.375,11.4062118 C9.375,11.6649628 9.16500091,11.8749618 8.90625,11.8749618 Z" id="Path"></path>
                </g>
            </g>
        </g>
    </g>
</svg>