
<svg width="64px" height="64px" viewBox="0 0 64 64" version="1.1" xmlns="http://www.w3.org/2000/svg" xmlns:xlink="http://www.w3.org/1999/xlink">
    <title>Rectangle</title>
    <defs>
        <rect id="path-1" x="0" y="0" width="360" height="144" rx="10"></rect>
        <filter x="-4.2%" y="-10.4%" width="108.3%" height="120.8%" filterUnits="objectBoundingBox" id="filter-2">
            <feMorphology radius="5" operator="erode" in="SourceAlpha" result="shadowSpreadOuter1"></feMorphology>
            <feOffset dx="0" dy="0" in="shadowSpreadOuter1" result="shadowOffsetOuter1"></feOffset>
            <feGaussianBlur stdDeviation="10" in="shadowOffsetOuter1" result="shadowBlurOuter1"></feGaussianBlur>
            <feComposite in="shadowBlurOuter1" in2="SourceAlpha" operator="out" result="shadowBlurOuter1"></feComposite>
            <feColorMatrix values="0 0 0 0 0   0 0 0 0 0   0 0 0 0 0  0 0 0 0.3 0" type="matrix" in="shadowBlurOuter1"></feColorMatrix>
        </filter>
    </defs>
    <g id="Page-1" stroke="none" stroke-width="1" fill="none" fill-rule="evenodd">
        <g id="Dashboard-V3" transform="translate(-793.000000, -168.000000)">
            <g id="widget-01-copy" transform="translate(520.000000, 144.000000)">
                <g id="Rectangle">
                    <use fill="black" fill-opacity="1" filter="url(#filter-2)" xlink:href="#path-1"></use>
                    <rect stroke="#EAF0F7" stroke-width="1" stroke-linejoin="square" fill="#FFFFFF" fill-rule="evenodd" x="0.5" y="0.5" width="359" height="143" rx="10"></rect>
                </g>
                <rect id="Rectangle" fill-opacity="0.1" fill="#6DD400" x="273" y="24" width="64" height="64" rx="12"></rect>
                <g id="Group-3" transform="translate(286.000000, 43.000000)" fill="#6DD400">
                    <path d="M36.6841877,12.1091728 L35.1863963,12.9964813 C34.5278621,13.386295 33.6750965,13.1680379 33.2852828,12.5098897 L30.9951276,8.64417329 C30.7904754,8.29884085 30.3445055,8.18479141 29.9994625,8.38915411 C29.65413,8.59370979 29.5400806,9.03958328 29.7445398,9.38491572 L32.034695,13.2508251 C32.0779219,13.3235774 32.1247188,13.3927597 32.173156,13.4602052 L31.5363318,13.832072 C31.4076161,13.9082979 31.2838213,13.9923394 31.1655263,14.0835211 L21.2924342,8.23670224 C20.8088337,7.95042077 20.1954561,8.29951627 20.1954561,8.86204438 C20.1878335,8.90546422 20.2706207,9.65247841 19.6798214,10.2430847 C19.3474185,10.5751017 18.9057905,10.758044 18.4359878,10.758044 L18.4347335,10.758044 C18.3805069,10.758044 18.3363152,10.7131768 18.3363152,10.6582748 L18.3363152,7.43594394 C18.3363152,6.59427451 18.9154393,5.88402246 19.6986367,5.68583502 L22.1123937,5.07496615 C22.9882201,4.85362147 23.4833027,5.32120488 24.7945818,5.76514859 C25.7050476,6.11723523 26.6949234,6.0956218 27.5735479,5.72037792 L28.0121848,6.46083088 C28.2168369,6.8063563 28.6625174,6.92021276 29.0077534,6.71575357 C29.3530858,6.5111014 29.4672318,6.0653244 29.2627726,5.71999196 L28.3988143,4.26185733 C28.0079393,3.60206877 28.2257139,2.75181187 28.8854059,2.36074386 L30.3830044,1.47343536 C30.4485201,1.43464697 30.5350703,1.45452361 30.575499,1.522741 L36.7333004,11.9166782 C36.7730536,11.9836412 36.7510542,12.069516 36.6841877,12.1091728 M31.4132124,17.0627973 C31.1366763,17.5295124 30.5322721,17.6841835 30.0653641,17.4078403 C29.2750266,16.9395815 24.1761868,13.9188152 23.632474,13.5967364 C23.2870451,13.3921808 22.841461,13.5061337 22.6369054,13.8514662 C22.4323497,14.1967986 22.5463026,14.6425756 22.8916351,14.8471313 L27.7549463,17.7282787 L27.7550428,17.7283752 C28.2219508,18.0050078 28.3776833,18.6075787 28.1000858,19.0763199 C27.8234532,19.5432279 27.2186631,19.6976096 26.7520446,19.4213629 C24.9534019,18.3557436 23.4928551,17.4904345 21.8862246,16.5385752 C21.5406992,16.334116 21.0951152,16.4480689 20.890463,16.7934014 C20.6859073,17.1387338 20.7999568,17.5845108 21.1452892,17.78897 L24.7286802,19.9119106 L24.7294521,19.9124895 C25.196553,20.189894 25.3508382,20.792079 25.0738196,21.2599518 C24.797187,21.7268598 24.1926864,21.8814344 23.7256819,21.6049948 L21.8026655,20.4656583 C21.8024726,20.4655618 21.8021831,20.4654653 21.8019901,20.4653688 L21.8014112,20.4650793 L20.3979856,19.6334447 C20.0525566,19.4287925 19.6068761,19.542842 19.4023204,19.8882709 C19.1976683,20.2335069 19.3117177,20.6792839 19.6569537,20.8838395 L21.0607653,21.7155707 C21.0609582,21.7156671 21.0611512,21.7157636 21.0613442,21.7158601 C21.5282522,21.9924927 21.6839847,22.5949671 21.4063872,23.0636119 C21.1297546,23.5306164 20.5251574,23.6852875 20.0582495,23.4086549 L18.4208391,22.4387522 C19.1227932,21.3554755 18.8558094,19.895797 17.7962689,19.1352744 C17.4849969,18.9120965 17.1386031,18.77296 16.7842007,18.7132336 C17.1600235,17.7081126 16.8360151,16.5346191 15.9233301,15.879462 C15.3829943,15.4914817 14.7360387,15.3574591 14.1254593,15.4530792 C14.0168133,14.8177023 13.6693581,14.2612529 13.1450394,13.8849477 C12.1592161,13.1773973 10.8192799,13.3133496 9.99179431,14.1505806 C9.82361481,13.8553257 9.59146341,13.5903682 9.29775233,13.3795408 C8.47846824,12.7914432 7.41477871,12.7860398 6.60369614,13.281219 L6.27071423,13.0846718 L10.8413758,5.36954563 L11.0589574,5.49787537 C12.0199832,6.06725417 13.1927047,6.18583857 14.2795515,5.76563104 L15.6765124,5.22548826 C16.4759199,4.91662848 16.916776,4.89646238 17.7074994,5.26948702 C17.190128,5.85083041 16.8829085,6.61395817 16.8829085,7.4363299 L16.8829085,10.6586608 C16.8829085,11.514514 17.5786873,12.2112577 18.4338651,12.2117401 L18.4360843,12.2117401 C19.2938673,12.2117401 20.1005114,11.8778898 20.7073278,11.2713629 C21.0610547,10.917829 21.3221527,10.4963671 21.4786571,10.0364063 C22.417008,10.5919872 30.1694753,15.1828149 31.0683624,15.7154315 C31.294435,15.8493576 31.4547989,16.0631762 31.5199287,16.3177129 C31.584962,16.5720567 31.5471385,16.8366282 31.4132124,17.0627973 M15.1241156,22.8571264 C14.6839349,22.5409335 14.5827185,21.9260121 14.8981395,21.4856385 L15.5763573,20.5410158 C15.8924537,20.1003527 16.5082435,19.9996187 16.9486172,20.3157151 C17.3888943,20.6318115 17.4901108,21.2475048 17.1739179,21.6878784 L16.4961825,22.6317292 C16.1801825,23.0722958 15.5643928,23.1734158 15.1241156,22.8571264 M11.891171,21.4957698 C11.4508938,21.1797699 11.3497739,20.564559 11.6653878,20.1240889 C11.6654843,20.1238959 11.6656773,20.1237029 11.6657738,20.1236064 L13.703515,17.2852034 C14.0195149,16.8448298 14.6354977,16.7436133 15.0757748,17.0598062 C15.516245,17.3759991 15.6172685,17.9915959 15.3010756,18.4319696 L14.3957237,19.6932676 L14.3956272,19.6933641 L13.2633343,21.2704691 C12.9471414,21.7110357 12.3317376,21.8122522 11.891171,21.4957698 M9.11278382,19.5012554 C8.67231369,19.1850625 8.5712902,18.5693692 8.88748311,18.1289956 L9.85613144,16.7797 L9.85613144,16.7796035 C9.85613144,16.7796035 9.85613144,16.779507 9.85622793,16.779507 L10.9252243,15.2905926 C11.0784481,15.0772564 11.3054856,14.9361902 11.5646538,14.8936388 C11.6184944,14.8848583 11.6724315,14.8805163 11.7259826,14.8805163 C11.9299594,14.8805163 12.1284363,14.9440058 12.2974842,15.0652918 C12.5107238,15.2185156 12.65179,15.4453602 12.694245,15.7046248 C12.7367964,15.963793 12.6759122,16.2240226 12.5226884,16.4373587 L10.4849472,19.2758582 C10.1682718,19.7173897 9.55431533,19.8183167 9.11278382,19.5012554 M6.33439666,17.5065481 C5.89305813,17.1896798 5.79213113,16.5759162 6.10919244,16.1343847 L7.07784077,14.7849927 C7.38641108,14.3551363 8.00133247,14.2376133 8.45010061,14.559692 C8.89057074,14.8759814 8.99159423,15.4914817 8.67549781,15.9318553 L7.70675299,17.2812474 C7.39056009,17.7219105 6.77467381,17.8226445 6.33439666,17.5065481 M3.02049817,12.9964813 L1.52280324,12.1091728 C1.45622616,12.069709 1.43413028,11.9833518 1.4734976,11.9168712 L7.63139545,1.522741 C7.67105224,1.45597094 7.75760245,1.43416453 7.82379358,1.47353185 L9.32139202,2.36084035 C9.9868734,2.75518896 10.1950956,3.60862999 9.80798367,4.26205031 L4.92170812,12.5097932 C4.53170149,13.1683274 3.67893588,13.3863915 3.02049817,12.9964813 M37.9838882,11.1759358 L31.8260868,0.782191546 C31.3774151,0.024370648 30.4007583,-0.226017082 29.6425514,0.223040527 L28.14476,1.11054201 C26.9820732,1.79918063 26.4906572,3.1930539 26.8899267,4.42820355 C26.3852917,4.61104931 25.83193,4.60815465 25.322567,4.41122157 C24.1400036,4.03906532 23.2409235,3.29060381 21.7560616,3.66623365 C19.2347199,4.30807533 19.3113318,4.27594465 19.0833294,4.35419685 C17.6070549,3.51368528 16.7196499,3.26349053 15.1524832,3.86972795 L13.7555223,4.40987073 C13.1087597,4.65977602 12.3960954,4.60053206 11.7984455,4.24641916 L11.4172193,4.02169738 C11.6032492,2.90706191 11.108842,1.73067378 10.0622309,1.11073498 L10.0621344,1.1106385 L8.56443952,0.223233504 C7.80835541,-0.224473265 6.82880388,0.0261074415 6.38080764,0.782191546 L0.223006281,11.1761287 C-0.225761863,11.9337567 0.0239504476,12.910703 0.781964323,13.3596641 L2.27965925,14.2468761 C2.73286587,14.5154037 3.23084316,14.6431545 3.72303114,14.6431545 C4.2717614,14.6431545 4.81277258,14.484045 5.27524209,14.184641 L5.58747897,14.3688376 L4.92846232,15.286733 C4.14314219,16.3807199 4.39266153,17.9018616 5.48684143,18.6873747 C5.99282727,19.050461 6.62849369,19.2163248 7.28587003,19.1131786 C7.39007764,19.7227931 7.72421742,20.2934262 8.2651321,20.6819855 C8.77304772,21.0467122 9.40591597,21.2127689 10.0644502,21.1089473 C10.1690437,21.7182723 10.502894,22.288423 11.0435193,22.6765964 C11.7700779,23.1981169 12.6734035,23.2584222 13.4261105,22.9369224 C13.5908164,23.3646561 13.8770979,23.7509961 14.2764639,24.0378565 C15.3193119,24.7863181 16.7558331,24.5910253 17.5660473,23.6214121 L19.3174105,24.6587602 C20.4755623,25.3451796 21.9698802,24.9637605 22.656589,23.8042578 C22.8321017,23.5078451 22.9410372,23.1848015 22.980887,22.8527844 L22.984843,22.8551967 C24.1413545,23.5400722 25.6389529,23.1565303 26.324118,22.0005013 C26.5224984,21.6655896 26.6312409,21.3022138 26.6576788,20.9382591 C27.6768871,21.1944361 28.787856,20.766413 29.3502877,19.8169659 C29.5348702,19.5054044 29.6419725,19.1690454 29.6771908,18.8303707 C30.7695374,19.2591657 32.0464666,18.844844 32.6634142,17.8035398 C32.9952383,17.2434239 33.0890251,16.5876878 32.9275998,15.9569423 C32.8352603,15.5960752 32.665537,15.2684002 32.4324207,14.9918641 L33.3975955,14.4277921 C34.2141779,14.7630898 35.1461606,14.7093457 35.9270422,14.2467797 L37.4246407,13.3595676 C38.182558,12.910896 38.4330423,11.9341426 37.9838882,11.1759358" id="Fill-1"></path>
                </g>
            </g>
        </g>
    </g>
</svg>