<?xml version="1.0" encoding="UTF-8"?>
<svg width="24px" height="24px" viewBox="0 0 24 24" version="1.1" xmlns="http://www.w3.org/2000/svg" xmlns:xlink="http://www.w3.org/1999/xlink">
    <title>C22600C5-3A9A-44C1-8225-93FCB6ED667B</title>
    <g id="Ant-Design-Pro-3.0" stroke="none" stroke-width="1" fill="none" fill-rule="evenodd" opacity="0.25">
        <g id="Pantalla-de-Inicio-01" transform="translate(-832.000000, -704.000000)" fill="#000000" fill-rule="nonzero">
            <g id="Group-6" transform="translate(752.000000, 704.000000)">
                <g id="facebook" transform="translate(80.000000, 0.000000)">
                    <path d="M24,12 C24,5.371875 18.628125,0 12,0 C5.371875,0 0,5.371875 0,12 C0,18.628125 5.371875,24 12,24 C12.0703125,24 12.140625,24 12.2109375,23.9953125 L12.2109375,14.6578125 L9.6328125,14.6578125 L9.6328125,11.653125 L12.2109375,11.653125 L12.2109375,9.440625 C12.2109375,6.8765625 13.7765625,5.4796875 16.0640625,5.4796875 C17.1609375,5.4796875 18.103125,5.559375 18.375,5.596875 L18.375,8.278125 L16.8,8.278125 C15.5578125,8.278125 15.3140625,8.86875 15.3140625,9.7359375 L15.3140625,11.6484375 L18.290625,11.6484375 L17.9015625,14.653125 L15.3140625,14.653125 L15.3140625,23.5359375 C20.3296875,22.096875 24,17.4796875 24,12 Z" id="Path"></path>
                </g>
            </g>
        </g>
    </g>
</svg>