<?xml version="1.0" encoding="UTF-8"?>
<svg width="16px" height="12px" viewBox="0 0 16 12" version="1.1" xmlns="http://www.w3.org/2000/svg" xmlns:xlink="http://www.w3.org/1999/xlink">
    <title>tap</title>
    <g id="Page-1" stroke="none" stroke-width="1" fill="none" fill-rule="evenodd">
        <g id="Dashboard-V3" transform="translate(-152.000000, -849.000000)" fill="#000000" fill-rule="nonzero">
            <g id="Group-8" transform="translate(152.000000, 823.000000)">
                <g id="tap" transform="translate(0.000000, 26.000000)">
                    <path d="M14.9688438,4.33788588 L12.2575041,1.39689362 C11.7210028,0.867342183 10.8470248,0.866641542 10.3054869,1.40116419 C10.1338754,1.57055259 10.0170566,1.77340495 9.95648387,1.98980305 C9.41710936,1.58196303 8.6390269,1.62253351 8.14217499,2.11294911 C7.97127334,2.28233751 7.8544545,2.48518987 7.79242829,2.70085397 C7.25305378,2.2944486 6.47497131,2.33428506 5.97886304,2.82470067 C5.81083455,2.9905525 5.69546918,3.18840028 5.63273313,3.39909315 L4.35492561,2.13783856 C3.81842425,1.60828713 2.94444622,1.60758649 2.4029084,2.14210914 C1.8656972,2.67166057 1.8656972,3.53431694 2.4029084,4.06456902 L7.31217304,8.91023821 L4.40035516,9.36148463 C3.61361945,9.47251961 3.02016214,10.1472706 3.02016214,10.932356 C3.02016214,11.5209948 3.50545385,12 4.10181811,12 L10.9011076,12 C11.9604206,12 12.9562539,11.5928606 13.7054697,10.8533503 L14.839755,9.73375875 C15.5882609,8.99564973 16,8.01341724 16,6.96926139 C16,5.99413539 15.6336904,5.05961324 14.9688438,4.33788588 Z M14.3299232,9.23053142 L13.1956379,10.350123 C12.5827108,10.9551101 11.767852,11.2882151 10.9010737,11.2882151 L4.10178431,11.2882151 C3.90275961,11.2882151 3.74122105,11.1287691 3.74122105,10.9323226 C3.74122105,10.4995598 4.06859099,10.127319 4.50774332,10.0653957 L8.12409105,9.50451556 C8.25821639,9.48386332 8.3685453,9.39064466 8.4111017,9.26322801 C8.45291447,9.13654538 8.41904511,8.99631701 8.32311575,8.9016637 L2.91270638,3.56134168 C2.65672573,3.30867705 2.65672573,2.8972671 2.91632317,2.64033189 C3.04466841,2.5143499 3.2126969,2.4509919 3.3807254,2.4509919 C3.54875389,2.4509919 3.71674859,2.5143499 3.84512763,2.64103254 L7.45282211,6.20199234 C7.59343739,6.34078606 7.82203862,6.34078606 7.9626539,6.20199234 C8.03258971,6.13222848 8.06794634,6.0411451 8.06794634,5.95002835 C8.06794634,5.85891161 8.03262352,5.76782823 7.96194406,5.69806436 L6.48872863,4.24393321 C6.23274798,3.99126858 6.23274798,3.58055927 6.49305525,3.32362407 C6.74832606,3.07166008 7.16584526,3.07166008 7.42111607,3.32362407 L8.89504134,4.77845586 C9.03565662,4.91724958 9.26425785,4.91724958 9.40487313,4.77845586 C9.47480894,4.708692 9.51016557,4.61760862 9.51016557,4.52649187 C9.51016557,4.43537513 9.47484275,4.34429175 9.40416329,4.27452788 L8.65204057,3.53214829 C8.39605992,3.27948366 8.39605992,2.86877435 8.65636719,2.61183915 C8.911638,2.35987516 9.32915721,2.35987516 9.58442802,2.61183915 L10.3401337,3.35775531 C10.3415872,3.35845595 10.3408436,3.35845595 10.3408436,3.35845595 L10.3415534,3.35915659 C10.3422632,3.35985724 10.3422632,3.35985724 10.3422632,3.35985724 C10.3429731,3.36055788 10.3429731,3.36055788 10.3429731,3.36055788 L10.3436829,3.36055788 C10.3443927,3.36055788 10.3443927,3.36125852 10.3443927,3.36125852 C10.4857179,3.49364638 10.7092826,3.49081045 10.846991,3.35415201 C10.9876062,3.21535829 10.9876062,2.9897184 10.846991,2.85092468 L10.8159947,2.82033 C10.6919761,2.69791794 10.62346,2.53490205 10.62346,2.36194372 C10.62346,2.18898539 10.6912325,2.0267035 10.8196115,1.90002086 C11.0763358,1.64805687 11.4916917,1.64875751 11.736146,1.88790977 L14.4359593,4.81682432 C14.9789168,5.40693118 15.2789073,6.1713643 15.2789073,6.96926139 C15.2789073,7.8233766 14.9421405,8.6262449 14.3299232,9.23053142 Z" id="Shape"></path>
                    <path d="M5.96901486,1.84216294 C5.46351647,0.723546452 4.34692813,0 3.12478079,0 C1.40198498,0 0,1.401916 0,3.12462705 C0,4.34671426 0.723549503,5.46324766 1.84222103,5.96943724 C1.88873469,5.99026809 1.93736409,6 1.9852774,6 C2.11720174,6 2.24359261,5.92360938 2.30192185,5.7958577 C2.38039942,5.62087858 2.3026054,5.41533671 2.12833377,5.33617949 C1.25756152,4.94247648 0.694417432,4.07451368 0.694417432,3.12462705 C0.694417432,1.78452008 1.78460788,0.694350718 3.12481334,0.694350718 C4.07474671,0.694350718 4.94275222,1.2574671 5.3364746,2.1281965 C5.41495217,2.30317562 5.6211877,2.38164933 5.79545933,2.30177605 C5.9704145,2.22265138 6.04817598,2.01714205 5.96901486,1.84216294 Z" id="Path"></path>
                </g>
            </g>
        </g>
    </g>
</svg>