
<svg width="32px" height="32px" viewBox="0 0 32 32" version="1.1" xmlns="http://www.w3.org/2000/svg" xmlns:xlink="http://www.w3.org/1999/xlink">
    <title>Group 11</title>
    <defs>
        <rect id="path-1" x="0" y="0" width="360" height="312" rx="10"></rect>
        <filter x="-4.2%" y="-4.8%" width="108.3%" height="109.6%" filterUnits="objectBoundingBox" id="filter-2">
            <feMorphology radius="5" operator="erode" in="SourceAlpha" result="shadowSpreadOuter1"></feMorphology>
            <feOffset dx="0" dy="0" in="shadowSpreadOuter1" result="shadowOffsetOuter1"></feOffset>
            <feGaussianBlur stdDeviation="10" in="shadowOffsetOuter1" result="shadowBlurOuter1"></feGaussianBlur>
            <feComposite in="shadowBlurOuter1" in2="SourceAlpha" operator="out" result="shadowBlurOuter1"></feComposite>
            <feColorMatrix values="0 0 0 0 0   0 0 0 0 0   0 0 0 0 0  0 0 0 0.3 0" type="matrix" in="shadowBlurOuter1"></feColorMatrix>
        </filter>
    </defs>
    <g id="Page-1" stroke="none" stroke-width="1" fill="none" fill-rule="evenodd">
        <g id="Dashboard-V3" transform="translate(-432.000000, -301.000000)">
            <g id="widget-01" transform="translate(128.000000, 144.000000)">
                <g id="Rectangle">
                    <use fill="black" fill-opacity="1" filter="url(#filter-2)" xlink:href="#path-1"></use>
                    <rect stroke="#EAF0F7" stroke-width="1" stroke-linejoin="square" fill="#FFFFFF" fill-rule="evenodd" x="0.5" y="0.5" width="359" height="311" rx="10"></rect>
                </g>
                <g id="001-tick-inside-circle" transform="translate(272.000000, 109.000000)"></g>
                <g id="Group-11" transform="translate(304.000000, 157.000000)">
                    <rect id="Rectangle" fill="#FEF4EB" x="0" y="0" width="32" height="32" rx="12"></rect>
                    <g id="002-clock-with-white-face" transform="translate(6.000000, 6.000000)" fill="#F7B500" fill-rule="nonzero">
                        <path d="M10,0 C15.5,0 20,4.5 20,10 C20,15.5 15.5,20 10,20 C4.5,20 0,15.5 0,10 C0,4.5 4.5,0 10,0 Z M10,2 C5.6,2 2,5.6 2,10 C2,14.4 5.6,18 10,18 C14.4,18 18,14.4 18,10 C18,5.6 14.4,2 10,2 Z M10.4368932,5.04854369 L10.4368932,10.2068383 L14.9514563,12.8851836 L14.1488673,14.1747573 L8.93203883,11.0004221 L8.93203883,5.04854369 L10.4368932,5.04854369 Z" id="Combined-Shape"></path>
                    </g>
                </g>
            </g>
        </g>
    </g>
</svg>