
<svg width="20px" height="19px" viewBox="0 0 20 19" version="1.1" xmlns="http://www.w3.org/2000/svg" xmlns:xlink="http://www.w3.org/1999/xlink">
    <title>business-cards</title>
    <g id="Consola" stroke="none" stroke-width="1" fill="none" fill-rule="evenodd">
        <g id="03_Detalle-cliente" transform="translate(-974.000000, -87.000000)">
            <g id="ID" transform="translate(960.000000, 72.000000)">
                <g id="business-cards" transform="translate(14.000000, 15.000000)" fill="#000000" fill-rule="nonzero">
                    <path d="M18.3333594,5.84695313 L18.101875,5.84695313 L15.2392578,0.848007813 C15.0178906,0.461484375 14.660625,0.184804688 14.2317578,0.0700390625 C14.0721484,0.0276171875 13.9100781,0.008515625 13.7496875,0.01390625 C13.4807031,0.0229296875 13.2164844,0.0991796875 12.976875,0.238085938 L0.826015625,7.31175781 C0.29484375,7.62121094 -0.0026171875,8.18515625 -1.71252256e-05,8.76347656 C0.0012890625,9.0428125 0.073203125,9.32589844 0.221367187,9.58457031 L2.5,13.5641016 L2.5,16.6798047 C2.5,17.5989453 3.24789062,18.3464063 4.16667969,18.3464063 L18.3333594,18.3464063 C19.2521484,18.3464063 20.0000391,17.5989844 20.0000391,16.6798047 L20.0000391,7.51355469 C20.0000391,6.59441406 19.2521484,5.84695313 18.3333594,5.84695313 Z M2.5,7.51304688 L2.5,11.8875 L0.944023438,9.16992188 C0.716171875,8.7715625 0.85125,8.26089844 1.2459375,8.03140625 L2.52273438,7.28808594 C2.51257813,7.36238281 2.5,7.43601563 2.5,7.51304688 Z M13.3968359,0.95828125 C13.585625,0.847617188 13.8053516,0.817890625 14.0161328,0.874882813 C14.2285547,0.931835938 14.4059375,1.069375 14.5166406,1.26222656 L17.1420312,5.84695313 L4.99921875,5.84695313 L13.3968359,0.95828125 Z M19.1666797,16.6796875 C19.1666797,17.1390625 18.793125,17.5130078 18.3333594,17.5130078 L4.16667969,17.5130078 C3.706875,17.5130078 3.33335938,17.1390625 3.33335938,16.6796875 L3.33335938,7.51304687 C3.33335938,7.05367188 3.70691406,6.67972656 4.16667969,6.67972656 L18.3333594,6.67972656 C18.7931641,6.67972656 19.1666797,7.05367188 19.1666797,7.51304687 L19.1666797,16.6796875 Z" id="Shape"></path>
                    <path d="M17.9166797,13.3463672 L12.9166797,13.3463672 C12.6863672,13.3463672 12.5,13.5327344 12.5,13.7630469 C12.5,13.9933594 12.6863672,14.1797266 12.9166797,14.1797266 L17.9166797,14.1797266 C18.1469922,14.1797266 18.3333594,13.9933594 18.3333594,13.7630469 C18.3333594,13.5327344 18.1469922,13.3463672 17.9166797,13.3463672 Z" id="Path"></path>
                    <path d="M17.9166797,10.8463672 L11.25,10.8463672 C11.0196875,10.8463672 10.8333203,11.0327344 10.8333203,11.2630469 C10.8333203,11.4933594 11.0196875,11.6797266 11.25,11.6797266 L17.9166797,11.6797266 C18.1469922,11.6797266 18.3333594,11.4933594 18.3333594,11.2630469 C18.3333594,11.0327344 18.1469922,10.8463672 17.9166797,10.8463672 Z" id="Path"></path>
                    <path d="M7.5,12.5130469 C8.41878906,12.5130469 9.16667969,11.7655859 9.16667969,10.8463672 C9.16667969,9.92714844 8.41878906,9.1796875 7.5,9.1796875 C6.58121094,9.1796875 5.83332031,9.92714844 5.83332031,10.8463672 C5.83332031,11.7655859 6.58125,12.5130469 7.5,12.5130469 Z M7.5,10.0130469 C7.95980469,10.0130469 8.33332031,10.3869922 8.33332031,10.8463672 C8.33332031,11.3057422 7.95976563,11.6796875 7.5,11.6796875 C7.04019531,11.6796875 6.66667969,11.3057422 6.66667969,10.8463672 C6.66667969,10.3869531 7.04023437,10.0130469 7.5,10.0130469 Z" id="Shape"></path>
                    <path d="M9.98945313,13.5437109 C9.40675781,13.26375 8.50261719,12.9296875 7.5,12.9296875 C6.49738281,12.9296875 5.59324219,13.26375 5.01058594,13.5437109 C4.48976563,13.794375 4.16667969,14.2944531 4.16667969,14.8486328 L4.16667969,15.0390625 C4.16667969,15.4842188 4.54023438,15.8463672 5,15.8463672 L10,15.8463672 C10.4598047,15.8463672 10.8333203,15.4842188 10.8333203,15.0390625 L10.8333203,14.8486328 C10.8333203,14.2944531 10.5102734,13.794375 9.98945313,13.5437109 Z M10,15.0130469 L5,15.0390625 L5,14.8486328 C5,14.6175 5.14242188,14.4051172 5.37191406,14.2948437 C5.87648438,14.0523437 6.65445313,13.7630078 7.5,13.7630078 C8.34554688,13.7630078 9.12355469,14.0523047 9.62808594,14.2948437 C9.85757812,14.4051172 10,14.6175 10,14.8486328 L10,15.0130469 Z" id="Shape"></path>
                </g>
            </g>
        </g>
    </g>
</svg>