<svg width="25" height="25" xmlns="http://www.w3.org/2000/svg">
 <title>Tablet</title>

 <g>
  <title>background</title>
  <rect fill="none" id="canvas_background" height="27" width="27" y="-1" x="-1"/>
 </g>
 <g>
  <title>Layer 1</title>
  <g fill-rule="evenodd" fill="none" id="Page-1">
   <g id="01_Dashboard">
    <g id="Live-Traffic">
     <g id="Tablet">
      <g fill="#0091FF" id="Group-9">
       <path id="Fill-1" d="m22.87679,6.5l-20.75358,0l0,-2.4c0,-0.48005 0.31919,-0.8 0.79822,-0.8l19.15714,0c0.47903,0 0.79822,0.31995 0.79822,0.8l0,2.4zm0,14.4c0,0.48 -0.31919,0.8 -0.79822,0.8l-19.15714,0c-0.47903,0 -0.79822,-0.32 -0.79822,-0.8l0,-13.6l20.75358,0l0,13.6zm-0.79822,-18.4l-19.15714,0c-0.87814,0 -1.59643,0.71995 -1.59643,1.6l0,16.8c0,0.88 0.71829,1.6 1.59643,1.6l19.15714,0c0.87814,0 1.59643,-0.72 1.59643,-1.6l0,-16.8c0,-0.88005 -0.71829,-1.6 -1.59643,-1.6l0,0z"/>
       <path id="Fill-3" d="m10.10536,4.1c0.44081,0 0.79821,0.3582 0.79821,0.8c0,0.4418 -0.3574,0.8 -0.79821,0.8c-0.44082,0 -0.79822,-0.3582 -0.79822,-0.8c0,-0.4418 0.3574,-0.8 0.79822,-0.8"/>
       <path id="Fill-5" d="m6.9125,4.1c0.44081,0 0.79821,0.3582 0.79821,0.8c0,0.4418 -0.3574,0.8 -0.79821,0.8c-0.44081,0 -0.79821,-0.3582 -0.79821,-0.8c0,-0.4418 0.3574,-0.8 0.79821,-0.8"/>
       <path id="Fill-7" d="m3.71964,4.1c0.44082,0 0.79822,0.3582 0.79822,0.8c0,0.4418 -0.3574,0.8 -0.79822,0.8c-0.44081,0 -0.79821,-0.3582 -0.79821,-0.8c0,-0.4418 0.3574,-0.8 0.79821,-0.8"/>
      </g>
     </g>
    </g>
   </g>
  </g>
 </g>
</svg>