<?xml version="1.0" encoding="UTF-8"?>
<svg width="21px" height="24px" viewBox="0 0 21 24" version="1.1" xmlns="http://www.w3.org/2000/svg" xmlns:xlink="http://www.w3.org/1999/xlink">
    <title>B5DDF57C-CAE2-4347-8298-000F0185BE40</title>
    <g id="Ant-Design-Pro-3.0" stroke="none" stroke-width="1" fill="none" fill-rule="evenodd" opacity="0.25">
        <g id="Login-02" transform="translate(-504.000000, -704.000000)">
            <g id="Group-8" transform="translate(504.000000, 704.000000)">
                <path d="M20.1044842,5.71576842 L12.5830105,10.0582947 L13.6482737,10.6732421 L19.8381684,7.09934737 L19.8381684,16.7081895 L0.7988,5.71576842 C0.634168421,5.62061053 0.431221053,5.62061053 0.266378947,5.71576842 C0.101536842,5.81092632 6.31578948e-05,5.98671579 6.31578948e-05,6.17703158 L6.31578948e-05,17.6307158 C6.31578948e-05,17.8208211 0.101536842,17.9966105 0.266378947,18.0917684 C0.431221053,18.1869263 0.634168421,18.1869263 0.7988,18.0917684 L8.31543158,13.7521895 L7.25016842,13.1372421 L1.06511579,16.7081895 L1.06511579,7.09934737 L20.1044842,18.0917684 C20.2693263,18.1869263 20.4722737,18.1869263 20.6371158,18.0917684 C20.8019579,17.9966105 20.9034316,17.8208211 20.9034316,17.6307158 L20.9034316,6.17703158 C20.9034316,5.98671579 20.8019579,5.81092632 20.6371158,5.71576842 C20.4722737,5.62061053 20.2693263,5.62061053 20.1044842,5.71576842" id="Fill-1" fill="#030000"></path>
                <path d="M17.1731579,18.8619368 L10.9843158,22.4349895 L10.9843158,15.2930947 L9.91905263,14.6781474 L9.91905263,22.4349895 L3.73105263,18.8623579 L2.666,19.4773053 L9.91905263,23.6646737 C10.2485263,23.8552 10.6546316,23.8552 10.9843158,23.6646737 L18.2384211,19.4768842 L17.1731579,18.8619368 Z" id="Fill-4" fill="#050302"></path>
                <path d="M9.91903158,0.142778947 L2.66345263,4.33162105 L3.72871579,4.94656842 L9.91903158,1.37267368 L9.91903158,8.52025263 L10.9842947,9.1352 L10.9842947,1.37267368 L17.1718737,4.94509474 L18.2369263,4.33014737 L10.9842947,0.142778947 C10.6546105,-0.0475368421 10.2485053,-0.0475368421 9.91903158,0.142778947" id="Fill-6" fill="#050302"></path>
            </g>
        </g>
    </g>
</svg>