<svg height="587" viewBox="0 0 345 587" width="345" xmlns="http://www.w3.org/2000/svg"><g fill="none" fill-rule="evenodd"><g transform="translate(2 2)"><g stroke="#26ff00"><path d="m171.147986 17.6763159s-140.0483748-8.94649211-135.0155166 166.8926071c0 0 3.4563002 44.437022 15.3941792 95.282792 0 0 6.0333661 40.346332 10.0657164 51.489676 0 0 17.49373 84.268229 107.183204 99.426511 0 0 73.961793 4.567938 111.920458-95.282793 0 0 8.45884-29.907494 11.248135-65.102585-.416878 5.234569 5.646806-31.945265 14.211761-85.222724.00758 0 12.10463-166.9001819-135.007937-167.4834841z" stroke-width="5"/><path d="m314.8 0h26.8l-.274481 36.4z" fill="#26ff00" stroke-width="2.4"/><path d="m26.8 0h-26.8l.27440273 36.4z" fill="#26ff00" stroke-width="2.4"/><path d="m314.8 431.2h26.8l-.274481-36.4z" fill="#26ff00" stroke-width="2.4"/><path d="m26.8 431.2h-26.8l.27440273-36.4z" fill="#26ff00" stroke-width="2.4"/></g><path d="m171.6 10v426.4" stroke="#fff" stroke-width="1.2"/><path d="m32 185.2s12.283959-2.990859 17.6-4" stroke="#fff" stroke-width="1.2"/><path d="m311.6 185.2s-12.283959-2.990859-17.6-4" stroke="#fff" stroke-width="1.2"/></g><g stroke="#f2f2f2" stroke-linecap="round" stroke-linejoin="round" stroke-width="1.2"><g><g transform="translate(52 183.5892)"><path d="m.471929.068145-.297558.267607"/><path d="m.32293509.18929237-.29260962.10958861s.02438413.06088256.0731524.18264768"/><path d="m.06823231.43915829c.02926096.07792968.05852192.17534178.08778288.29223629"/></g><g transform="translate(52.151627 183.134898)"><path d="m.0454882 1.45376537c.02926097.0974121.05852193.19482419.11704385.29223629"/><path d="m.36390563 2.66523651c2.28957292 7.93513599 13.88906487 37.30573939 59.93070837 34.13319939 0 0 20.621319-1.8020634 39.0895297-11.2363949 0 0 26.4513903-12.7507337 47.9748923 1.7717766 0 0 14.397016 11.3196834 38.498183 9.4646183 0 0 50.211395.4164432 58.967875-36.07912491" stroke-dasharray="1.20128 6.00644"/><path d="m244.953977.34523816c.029261-.0974121.058522-.1948242.087783-.2922363"/></g><g transform="translate(296.953977 182.453445)"><path d="m.22744102.68596442c.02926096-.0974121.05852192-.1948242.08778289-.2922363"/><path d="m.41657277.43609849c.02438413-.06088256.04876827-.12176512.0731524-.18264768l-.29260962-.10958861"/><path d="m.350627.290322-.297557-.267607"/></g><path d="m296.857303 182.39547-.297557-.267607"/><path d="m295.665145 181.416124-121.847735-96.190809" stroke-dasharray="1.20248 6.01244"/><path d="m173.57669 85.068907-.297557-.267607"/><g transform="translate(172.619553 84.4)"><path d="m.684207.456899-.297557-.267607"/><path d="m.45181833.33115792-.15266589-.26301267-.13994373.2922363"/><path d="m.305138.189292-.297557.297341"/></g><path d="m172.484972 84.952734-.297557.297341"/><path d="m171.315558 85.747762-118.345143 97.334134" stroke-dasharray="1.19744 5.98716"/><path d="m52.744857 183.437766-.297557.297341"/></g><g><path d="m270.154613 214.822739-.239218.297212"/><path d="m270.04848 214.981915-.239218.297211"/><path d="m269.737663 215.451863-.239218.297211"/><path d="m268.86923 216.497875-52.164206 79.549971" stroke-dasharray="1.20232 6.01152"/><path d="m216.572778 296.517793-.239218.297211"/><g transform="translate(216 296.737607)"><path d="m.424526.068218-.239218.297211"/><path d="m.29259177.22739391-.23407342.13582634.11703671.15672268"/><path d="m.117037.500267.119609.297211"/></g><path d="m216.242589 297.791199.119609.297211"/><path d="m216.576149 299.003967 17.51189 63.15487" stroke-dasharray="1.21124 6.05628"/><path d="m234.239657 362.712162.119609.297211"/><path d="m234.348004 363.030513.119609.297211"/><path d="m234.416276 363.220008.119609.297211"/></g><g><path d="m77.619425 214.853059.238164.297211"/><path d="m77.755398 215.012234.238164.297211"/><path d="m78.030309 215.489762.238164.297211"/><path d="m78.717293 216.535774 51.908845 79.618189" stroke-dasharray="1.20276 6.0138"/><path d="m130.935659 296.62391.238164.297212"/><g transform="translate(131.048898 296.889203)"><path d="m.067944.022739.238164.297212"/><path d="m.17363343.18191513.23309692.13582633-.11654846.15672269"/><path d="m.277617.454788-.119082.297211"/></g><path d="m131.175529 297.897316-.119082.297212"/><path d="m130.754476 299.110084-17.431286 63.207928" stroke-dasharray="1.21216 6.06072"/><path d="m113.261089 362.871337-.119082.297212"/><path d="m113.212613 363.197268-.119082.297212"/><path d="m113.125202 363.379184-.119082.297211"/></g><g><path d="m174.029256 11.653085.14874.297715"/><path d="m174.107273 11.835092.148739.297715"/><path d="m174.265305 12.373529.148739.297715"/><path d="m174.667052 13.556574 68.95647 204.628863" stroke-dasharray="1.19708 5.98536"/><path d="m243.805445 218.723874.14874.297714"/><path d="m243.927834 219.049969.14874.297714"/><path d="m244.005851 219.224392.148739.297715"/></g><g><path d="m173.232244 11.6-.148739.297714"/><path d="m173.154228 11.782007-.14874.297714"/><path d="m172.957101 12.320444-.148739.297714"/><path d="m172.444516 13.503489-68.842769 204.909456" stroke-dasharray="1.19832 5.99168"/><path d="m103.530663 218.951383-.148739.297714"/><path d="m103.480392 219.269894-.148739.297715"/><path d="m103.363368 219.451901-.14874.297715"/></g><g><path d="m172.037921 432.806156.297785-.297811"/><path d="m172.159267 432.662005.297786-.297811"/><g transform="translate(172.53089 188.931083)"><path d="m.007584 243.298469.297786-.29781"/><path d="m.82667189 242.135753 112.99618711-130.623571 2.957817-20.7425707s21.402459-21.524021 18.361217-63.4112681c0 0-1.979462-18.14026582.242692-26.68310955" stroke-dasharray="1.2026 6.01308"/><path d="m135.536268.30799676c.029272-.10457963.087815-.20915927.117087-.29282297"/></g><g transform="translate(308.135416 188.4)"><path d="m.03902891.51284292c.02927169-.10457963.08781506-.20915926.14635843-.29282297"/><path d="m.11708674.33075744c.05854338-.10457963.08781506-.18824333.14635843-.29282297"/></g></g><g><path d="m173.133397 432.889611-.297391-.29781"/><path d="m173.012221 432.74546-.297392-.29781"/><g transform="translate(36.951471 188.931083)"><path d="m135.689646 243.389512-.297392-.297811"/><path d="m134.650047 242.226795-112.8836802-130.661505-2.9612559-20.7425704s-21.38011602-21.5316079-18.34312469-63.418855c0 0 1.97669511-18.14785275-.24235342-26.69828337" stroke-dasharray="1.19728 5.9864"/><path d="m.1547908.34593123c-.02923077-.10457963-.08769231-.20915926-.11692308-.29282297"/></g><g transform="translate(36.8 188.4)"><path d="m.25333333.5431905c-.02923077-.10457963-.0876923-.20915926-.14615384-.29282297"/><path d="m.17538462.36110502c-.05846154-.10457963-.08769231-.18824333-.14615385-.29282297"/></g></g><g><g transform="translate(55.6 281.2)"><path d="m.02926191.0374647s.05852383.08898359.2048334.28919667"/><path d="m.1365556.20980231c.05852382.08898359.11704765.17796718.20483339.28919668"/></g><g transform="translate(55.979081 281.874365)"><path d="m.00758161.02247882c.05852383.08898359.14630957.17796718.23409531.28919668"/><path d="m.66718202 1.07149036c4.24570374 6.36899867 22.81307598 27.70889064 74.80020198 15.27061094 0 0 42.866445-13.78700889 85.884521-.5844493 0 0 46.566272 16.626833 74.982161-12.59563149" stroke-dasharray="1.20208 6.0104"/><path d="m236.72831 2.96417612c.087786-.10516243.204833-.18403425.292619-.28919668"/></g><g transform="translate(292.904513 284.122246)"><path d="m.03032646.46902723c.08778574-.10516243.20483339-.18403425.29261913-.28919668"/><path d="m.15921389.33415431c.08778574-.10516242.2048334-.18403424.29261914-.28919667"/></g></g><g><g transform="translate(129.836886 115.200526)"><path d="m.45840536.45726713s-.1061732-.10590957-.29197629-.2912513"/><path d="m.32980107.32898217c-.07962989-.07943217-.18580309-.18534174-.29197628-.2912513"/></g><g transform="translate(64.4 62)"><path d="m65.3581789 53.1295611c-.0796299-.0794321-.1858031-.1853417-.2919763-.2912513"/><path d="m64.2567521 52.0459616c-8.3517135-8.1951449-50.7684322-49.60854742-58.01566186-51.4950909 0 0-9.80418539-3.07883897-4.7583585 5.4407914" stroke-dasharray="1.20216 6.01088"/><path d="m1.7777651 6.47461723c.08759288.08961578.14598814.17923157.23358103.2912513"/></g><g transform="translate(66.291239 68.716095)"><path d="m.06808462.04527704c.08759289.08961579.14598814.17923157.23358103.29125131"/><path d="m.17399403.2037467c.08759289.08961578.14598814.17923157.23358103.2912513"/></g></g><g><g transform="translate(213.2 115.448898)"><path d="m.02276533.45648148s.10650283-.10595315.29288278-.29137116"/><path d="m.15176889.29137116c.07987712-.07946486.18637995-.18541801.29288278-.29137116"/></g><g transform="translate(213.731191 62)"><path d="m.03035378 53.3477064c.07987712-.0874113.18637995-.2039598.29288277-.2913711"/><path d="m.92579024 52.2561116c8.40799658-8.2211652 51.13852796-49.77994797 58.44620006-51.67481709 0 0 9.8801549-3.08765525 4.795897 5.45812897" stroke-dasharray="1.2066 6.03308"/><path d="m64.0455366 6.52257736c-.0878648.08965266-.1464414.17930532-.2343062.29137115"/></g><g transform="translate(277.246472 68.794351)"><path d="m.37098485.02264784c-.08786483.08965266-.14644139.17930533-.23430622.29137116"/><path d="m.23430622.1811827c-.08786483.08965267-.14644139.17930533-.23430622.29137116"/></g></g><g><g transform="translate(208.739752 214)"><path d="m.45791926.00980689s-.10606061.08826202-.29166667.29420672"/><path d="m.32189441.17652403c-.07954545.08023819-.18560606.18722245-.29166667.29420671"/></g><g transform="translate(174.128986 214.533592)"><path d="m34.5245859.00762275c-.0795454.08023819-.185606.18722245-.2916666.29420671"/><path d="m33.4545549.90710692c-4.9951346 5.32067753-21.3634576 24.93400608-16.84441 49.31917428 0 0-1.3451345 21.8696617-15.9980331 29.8964145" stroke-dasharray="1.19232 5.96164"/><path d="m.30678054 80.3894918c-.08974359.0588413-.20192308.1471034-.29166667.2059447"/></g><g transform="translate(173.6 295.029803)"><path d="m.53348861.04903445c-.08974359.05884135-.20192307.11768269-.29166666.2059447"/><path d="m.35967909.15691025c-.10416667.05884134-.1875.11768268-.29166667.17652403"/></g></g><g><g transform="translate(137.6 214)"><path d="m.02267081.06860472s.1060606.08826202.29166666.29420672"/><path d="m.15869565.19819143c.07954546.08023819.18560606.18722245.29166667.29420671"/></g><g transform="translate(138.128986 214.533592)"><path d="m.03022774.06098198c.07954546.08023819.18560606.18722245.29166667.29420671"/><path d="m.9068323.96808889c5.02536232 5.32067754 21.4163561 24.88064681 16.8821946 49.18196481 0 0 1.3451346 21.8163025 16.0433748 29.820187" stroke-dasharray="1.2088 6.044"/><path d="m34.3387164 80.2370369c.0897435.0588413.201923.1471033.2916666.2059447"/></g><g transform="translate(172.739752 294.877348)"><path d="m.03022774.06864823c.08974359.05884135.20192308.11768269.29166667.2059447"/><path d="m.19648033.17652403c.10416667.05884134.1875.11768269.29166667.17652403"/></g></g></g><rect height="110" rx="5" stroke="#26ff00" stroke-width="5" width="186" x="79.5" y="474.5"/></g></svg>