<svg width="196" height="71" viewBox="0 0 196 71" fill="none" xmlns="http://www.w3.org/2000/svg">
<g clip-path="url(#clip0)">
<path d="M88.7402 44.0644H84.7854L81.747 38.6506C80.3484 36.1213 79.4321 34.3906 79.0945 33.4588C79.1909 34.3463 79.2392 36.1213 79.2392 38.7394V44.1088H74.6093V25.1606H78.9016L81.5059 29.465C82.8081 31.6394 83.7244 33.4144 84.2549 34.7456C84.1585 33.725 84.062 31.9056 84.062 29.3763V25.1163H88.6919V44.0644H88.7402Z" fill="white"/>
<path d="M103.016 36.92C103.016 39.3163 102.485 41.18 101.472 42.4669C100.411 43.7538 98.9646 44.375 96.9872 44.375C95.1063 44.375 93.6594 43.7538 92.5984 42.5113C91.5374 41.2688 91.0551 39.4494 91.0551 37.0531C91.0551 32.0831 93.0325 29.5981 97.0354 29.5981C98.9646 29.5981 100.411 30.2194 101.472 31.4619C102.533 32.7044 103.016 34.5238 103.016 36.92ZM98.5305 36.9644C98.5305 35.5 98.434 34.435 98.1929 33.8581C98 33.3256 97.6142 33.0594 97.0354 33.0594C96.5049 33.0594 96.1191 33.3256 95.9262 33.9025C95.685 34.4794 95.5886 35.4556 95.5886 36.92C95.5886 38.3844 95.685 39.405 95.9262 39.9819C96.1673 40.5588 96.5531 40.8694 97.0837 40.8694C97.6142 40.8694 98 40.5588 98.1929 39.9819C98.434 39.405 98.5305 38.3844 98.5305 36.9644Z" fill="white"/>
<path d="M117.002 29.8644L112.806 44.0644H108.273L104.125 29.8644H108.851L109.623 33.5031C110.105 35.6775 110.395 37.7631 110.539 39.76C110.684 37.9406 110.973 35.8106 111.456 33.5031L112.227 29.8644H117.002Z" fill="white"/>
<path d="M129.493 44.0644H125.056V43.2656C124.14 44.02 123.175 44.375 122.066 44.375C119.413 44.375 118.063 42.7775 118.063 39.5825C118.063 36.4763 119.558 34.9231 122.596 34.9231C123.513 34.9231 124.333 35.0563 125.056 35.3669V34.2575C125.056 33.3256 124.526 32.8375 123.513 32.8375C122.404 32.8375 121.246 33.1925 120.04 33.9025L118.738 31.0181C120.474 30.0419 122.307 29.5538 124.284 29.5538C127.805 29.5538 129.541 31.0625 129.541 34.08V44.0644H129.493ZM125.056 40.825V38.0294C124.622 37.8519 124.14 37.7188 123.513 37.7188C122.693 37.7188 122.307 38.34 122.307 39.5381C122.307 40.6919 122.741 41.3131 123.561 41.3131C124.188 41.2688 124.67 41.1356 125.056 40.825Z" fill="white"/>
<path d="M143.383 36.92C143.383 41.89 141.936 44.375 139.091 44.375C138.126 44.375 137.21 44.02 136.342 43.31V44.1088H131.808V26.0038L136.342 24.3619V30.7075C137.258 29.9531 138.222 29.5538 139.235 29.5538C141.984 29.5538 143.383 31.9944 143.383 36.92ZM138.849 37.0088C138.849 35.4113 138.753 34.3019 138.512 33.7694C138.367 33.3256 138.03 33.1038 137.547 33.1038C137.113 33.1038 136.679 33.2813 136.245 33.5919V40.3369C136.679 40.6919 137.113 40.8694 137.547 40.8694C137.981 40.8694 138.319 40.6475 138.464 40.2038C138.753 39.6269 138.849 38.5619 138.849 37.0088Z" fill="black"/>
<path d="M156.405 44.0644H151.968V43.2656C151.051 44.02 150.087 44.375 148.977 44.375C146.325 44.375 144.974 42.7775 144.974 39.5825C144.974 36.4763 146.47 34.9231 149.508 34.9231C150.424 34.9231 151.244 35.0563 151.968 35.3669V34.2575C151.968 33.3256 151.437 32.8375 150.424 32.8375C149.315 32.8375 148.158 33.1925 146.952 33.9025L145.65 31.0181C147.386 30.0419 149.219 29.5538 151.196 29.5538C154.717 29.5538 156.453 31.0625 156.453 34.08V44.0644H156.405ZM151.968 40.825V38.0294C151.533 37.8519 151.051 37.7188 150.424 37.7188C149.604 37.7188 149.219 38.34 149.219 39.5381C149.219 40.6919 149.653 41.3131 150.472 41.3131C151.051 41.2688 151.533 41.1356 151.968 40.825Z" fill="black"/>
<path d="M170.246 44.0644H165.713V34.7456C165.713 33.6806 165.327 33.1481 164.603 33.1481C164.121 33.1481 163.639 33.3256 163.205 33.6806V44.0644H158.671V29.8644H163.205V30.6631C164.121 29.9088 165.182 29.5538 166.34 29.5538C168.944 29.5538 170.246 31.0181 170.246 33.9913V44.0644Z" fill="black"/>
<path d="M184.57 44.0644H179.844L178.011 38.0294L177.095 39.4494V44.1088H172.561V26.0038L177.095 24.3619V30.8406C177.095 31.9944 177.046 33.2369 176.998 34.5238C177.673 33.2369 178.348 32.0388 179.024 30.885L179.651 29.82H184.473L181.29 34.2131L184.57 44.0644Z" fill="black"/>
<path d="M57.1988 21.8769L34.7244 10.1619C34.3868 9.98437 33.9528 9.98437 33.5669 10.1619L11.0925 21.8769C10.7067 22.0544 10.5138 22.4094 10.5138 22.8088V48.0138C10.5138 48.4131 10.7549 48.7681 11.0925 48.9456L33.5669 60.705C33.7599 60.7938 33.9528 60.8381 34.1457 60.8381C34.3386 60.8381 34.5315 60.7938 34.7244 60.705L57.1988 48.9456C57.5847 48.7681 57.7776 48.4131 57.7776 48.0138V22.8088C57.7776 22.4538 57.5847 22.0987 57.1988 21.8769ZM55.0286 47.6588L34.1457 58.575L13.2628 47.6588C13.2628 47.6588 12.9734 47.57 12.877 47.3925C12.7805 47.215 12.8288 46.9044 12.8288 46.9044V23.4744L33.6634 12.6025C33.6634 12.6025 33.8563 12.5137 34.1457 12.5137C34.4351 12.5137 34.628 12.6025 34.628 12.6025L55.4626 23.4744V46.9044C55.4626 46.9044 55.4144 47.1706 55.3179 47.3925C55.2215 47.57 55.0286 47.6588 55.0286 47.6588Z" fill="#4AC1E0"/>
<path d="M22.9084 29.11L34.1457 23.2525V35.855L22.9084 41.7125V29.11Z" fill="#83D3ED"/>
<path d="M34.1457 47.6144L45.3829 41.7125L34.1457 35.855L22.9084 41.7125L34.1457 47.6144Z" fill="#0071CE"/>
<path d="M45.3829 29.11L34.1457 23.2525V35.855L45.3829 41.7125V29.11Z" fill="#4AC1E0"/>
<path d="M12.8287 23.4744L22.9085 29.1544L34.1457 23.2969L45.3829 29.1544L55.4626 23.4744L34.628 12.5581C34.628 12.5581 34.1457 12.3362 33.6634 12.5581C33.2293 12.78 12.8287 23.4744 12.8287 23.4744Z" fill="#0071CE"/>
<path d="M22.9084 41.7125V29.11L12.8287 23.4744V46.9044C12.8287 46.9044 12.7805 47.215 12.8769 47.3925C12.9734 47.6144 13.2628 47.6587 13.2628 47.6587L34.1456 58.575V47.6144L22.9084 41.7125Z" fill="#005994"/>
<path d="M45.3829 41.7125V29.11L55.4626 23.4744V46.9044C55.4626 46.9044 55.5108 47.215 55.4144 47.3925C55.3179 47.6144 55.0286 47.6587 55.0286 47.6587L34.1457 58.575V47.6144L45.3829 41.7125Z" fill="#83D3ED"/>
</g>
<defs>
<clipPath id="clip0">
<rect width="196" height="71" fill="white"/>
</clipPath>
</defs>
</svg>

